# xmcd
#
# Track frame offsets: 
#        150
#        15581
#        30285
#        43911
#        84701
#        101086
#        152430
#
# Disc length: 2493 seconds
#
# Revision: 0
# Processed by: cddbd v1.5.2PL0 Copyright (c) Steve Scherf et al.
# Submitted via: ExactAudioCopy v0.99pb4
#
DISCID=4709bb07
DTITLE=Sharon Jones and The Dap-Kings - Live Muffathalle 2012 - CD 2
DYEAR=2012
DGENRE=Funk
TTITLE0=Natural Born Lover
TTITLE1=Calamity
TTITLE2=100 Days 100 Nights
TTITLE3=100 Days 100 Nights (B)
TTITLE4=Honky Donk
TTITLE5=Last Song
TTITLE6=How Long Do I Have To Wait
EXTD=
EXTT0=
EXTT1=
EXTT2=
EXTT3=
EXTT4=
EXTT5=
EXTT6=
PLAYORDER=
